<svg xmlns="http://www.w3.org/2000/svg" width="920" height="260" viewBox="0 0 920 260" role="img" aria-labelledby="title desc">
  <title id="title">anotify event flow</title>
  <desc id="desc">An animated event moves from an AI agent through the anotify relay to a desktop approval card.</desc>
  <defs>
    <linearGradient id="canvas" x1="0" y1="0" x2="1" y2="1">
      <stop offset="0" stop-color="#fffaf3"/>
      <stop offset="0.55" stop-color="#fff4dd"/>
      <stop offset="1" stop-color="#eef7ff"/>
    </linearGradient>
    <linearGradient id="accent" x1="0" y1="0" x2="1" y2="0">
      <stop offset="0" stop-color="#eba33a"/>
      <stop offset="0.5" stop-color="#48b079"/>
      <stop offset="1" stop-color="#5aa6f0"/>
    </linearGradient>
    <filter id="shadow" x="-20%" y="-30%" width="140%" height="170%">
      <feDropShadow dx="0" dy="8" stdDeviation="9" flood-color="#173154" flood-opacity="0.12"/>
    </filter>
    <filter id="soft-glow" x="-100%" y="-100%" width="300%" height="300%">
      <feGaussianBlur stdDeviation="4" result="blur"/>
      <feMerge><feMergeNode in="blur"/><feMergeNode in="SourceGraphic"/></feMerge>
    </filter>
    <style>
      text{font-family:system-ui,-apple-system,"Segoe UI",sans-serif}
      .mono{font-family:ui-monospace,SFMono-Regular,Consolas,monospace}
      .packet-a{animation:travel-a 6s cubic-bezier(.4,0,.2,1) infinite}
      .packet-b{animation:travel-b 6s cubic-bezier(.4,0,.2,1) infinite}
      .relay-ring{transform-box:fill-box;transform-origin:center;animation:ring 6s ease-out infinite}
      .notice{transform-box:fill-box;transform-origin:center;animation:notice 6s ease-in-out infinite}
      .online{transform-box:fill-box;transform-origin:center;animation:pulse 2.4s ease-in-out infinite}
      .flow-line{animation:dash 8s linear infinite}
      @keyframes travel-a{0%,8%{transform:translateX(0);opacity:0}13%{opacity:1}34%{transform:translateX(104px);opacity:1}39%,100%{transform:translateX(104px);opacity:0}}
      @keyframes travel-b{0%,39%{transform:translateX(0);opacity:0}44%{opacity:1}65%{transform:translateX(104px);opacity:1}70%,100%{transform:translateX(104px);opacity:0}}
      @keyframes ring{0%,30%,100%{transform:scale(.55);opacity:0}36%{opacity:.52}48%{transform:scale(1.45);opacity:0}}
      @keyframes notice{0%,59%{transform:translateY(8px) scale(.98);opacity:.45}68%,92%{transform:translateY(0) scale(1);opacity:1}100%{transform:translateY(8px) scale(.98);opacity:.45}}
      @keyframes pulse{0%,100%{transform:scale(1);opacity:1}50%{transform:scale(1.35);opacity:.6}}
      @keyframes dash{to{stroke-dashoffset:-40}}
      @media (prefers-reduced-motion:reduce){.packet-a,.packet-b,.relay-ring,.notice,.online,.flow-line{animation:none}.packet-a,.packet-b{opacity:.85}.relay-ring{opacity:.25}}
    </style>
  </defs>

  <rect x="8" y="8" width="904" height="244" rx="28" fill="url(#canvas)" stroke="#d1dbe9"/>
  <rect x="9" y="9" width="902" height="3" rx="2" fill="url(#accent)" opacity="0.9"/>
  <circle cx="76" cy="42" r="32" fill="#ffd98f" opacity="0.18"/>
  <circle cx="855" cy="216" r="48" fill="#8bc9f7" opacity="0.14"/>

  <text x="40" y="44" font-size="21" font-weight="850" fill="#173154">From agent event to desktop action.</text>
  <text x="40" y="66" font-size="12.5" fill="#66758b">A tiny relay keeps notifications and approvals moving.</text>
  <g transform="translate(774 31)">
    <circle class="online" cx="7" cy="7" r="5" fill="#48b079"/>
    <text x="19" y="11" class="mono" font-size="11" font-weight="700" fill="#176b45">CONNECTED</text>
  </g>

  <path class="flow-line" d="M286 151 H390 M530 151 H634" fill="none" stroke="#93a6c2" stroke-width="2" stroke-linecap="round" stroke-dasharray="5 8"/>

  <g class="packet-a" filter="url(#soft-glow)">
    <circle cx="286" cy="151" r="5" fill="#eba33a"/>
    <circle cx="286" cy="151" r="10" fill="none" stroke="#eba33a" stroke-opacity="0.25"/>
  </g>
  <g class="packet-b" filter="url(#soft-glow)">
    <circle cx="530" cy="151" r="5" fill="#5aa6f0"/>
    <circle cx="530" cy="151" r="10" fill="none" stroke="#5aa6f0" stroke-opacity="0.25"/>
  </g>

  <g filter="url(#shadow)">
    <rect x="40" y="92" width="246" height="118" rx="20" fill="#ffffff" fill-opacity="0.76" stroke="#ffffff" stroke-opacity="0.92"/>
    <rect x="40" y="92" width="4" height="118" rx="2" fill="#eba33a"/>
  </g>
  <g transform="translate(60 112)">
    <rect width="40" height="40" rx="12" fill="#fff1d2" stroke="#ead4ab"/>
    <path d="M10 13l7 7-7 7M21 27h9" fill="none" stroke="#24446f" stroke-width="2.6" stroke-linecap="round" stroke-linejoin="round"/>
    <text x="52" y="12" class="mono" font-size="10" font-weight="850" letter-spacing="1.2" fill="#7b4b00">AGENT</text>
    <text x="52" y="32" font-size="15" font-weight="800" fill="#173154">Approval needed</text>
    <rect x="0" y="55" width="206" height="31" rx="10" fill="#f8fafc" stroke="#d1dbe9"/>
    <circle cx="14" cy="70.5" r="4" fill="#eba33a"/>
    <text x="25" y="74.5" class="mono" font-size="11" fill="#46566f">deploy production?</text>
  </g>

  <g filter="url(#shadow)">
    <rect x="390" y="104" width="140" height="94" rx="24" fill="#24446f"/>
  </g>
  <g transform="translate(460 132)">
    <circle class="relay-ring" r="25" fill="none" stroke="#7ac5ff" stroke-width="2" opacity="0"/>
    <circle r="16" fill="#ffffff" fill-opacity="0.12" stroke="#8acaf7" stroke-opacity="0.55"/>
    <circle r="5" fill="#5aa6f0"/>
    <path d="M-11-9a15 15 0 0 1 22 0M-7-5a10 10 0 0 1 14 0" fill="none" stroke="#fffaf3" stroke-width="2" stroke-linecap="round" opacity="0.9"/>
  </g>
  <text x="460" y="170" text-anchor="middle" class="mono" font-size="10" font-weight="850" letter-spacing="1.2" fill="#fffaf3">RELAY</text>
  <text x="460" y="185" text-anchor="middle" class="mono" font-size="9.5" fill="#c9def2">event delivered</text>

  <g class="notice">
    <g filter="url(#shadow)">
      <rect x="634" y="89" width="246" height="124" rx="20" fill="#ffffff" fill-opacity="0.88" stroke="#ffffff"/>
      <rect x="634" y="89" width="4" height="124" rx="2" fill="#5aa6f0"/>
    </g>
    <g transform="translate(654 106)">
      <circle cx="16" cy="16" r="16" fill="#e8f4ff"/>
      <path d="M16 8v3M10 13.5a6 6 0 0 1 12 0v4l2 3H8l2-3zM14 23h4" fill="none" stroke="#245f97" stroke-width="1.8" stroke-linecap="round" stroke-linejoin="round"/>
      <text x="43" y="12" class="mono" font-size="10" font-weight="850" letter-spacing="1.1" fill="#245f97">DESKTOP</text>
      <text x="43" y="30" font-size="14.5" font-weight="800" fill="#173154">Deploy production?</text>
      <rect x="0" y="47" width="91" height="30" rx="10" fill="#fff" stroke="#ec6a6a" stroke-opacity="0.45"/>
      <text x="45.5" y="66.5" text-anchor="middle" font-size="11" font-weight="800" fill="#9f2727">Deny</text>
      <rect x="99" y="47" width="107" height="30" rx="10" fill="#48b079"/>
      <path d="M116 62l4 4 7-9" fill="none" stroke="#102640" stroke-width="2" stroke-linecap="round" stroke-linejoin="round"/>
      <text x="160" y="66.5" text-anchor="middle" font-size="11" font-weight="850" fill="#102640">Approve</text>
    </g>
  </g>
</svg>
